<?xml version="1.0" encoding="UTF-8" standalone="no"?>
<svg throwIfNamespace= false width="164px" height="72px" viewBox="0 0 164 72" version="1.1" xmlns="http://www.w3.org/2000/svg" xmlns:xlink="http://www.w3.org/1999/xlink" xmlns:sketch="http://www.bohemiancoding.com/sketch/ns">
    <!-- Generator: Sketch 3.2.2 (9983) - http://www.bohemiancoding.com/sketch -->
    <title>jonar-logo_full-colour</title>
    <desc>Created with Sketch.</desc>
    <defs></defs>
    <g throwIfNamespace= false id="Page-1" stroke="none" stroke-width="1" fill="none" fill-rule="evenodd" sketch:type="MSPage">
        <g throwIfNamespace= false id="jonar-logo_full-colour" sketch:type="MSArtboardGroup">
            <path throwIfNamespace= false d="M70.1660473,42.395 C71.7683378,42.395 73.1468649,41.81765 74.2998311,40.6625 C75.4527973,39.50735 76.0297297,38.12765 76.0297297,36.5225 C76.0297297,34.93265 75.4532466,33.5525 74.2998311,32.3825 C73.1468649,31.24265 71.7683378,30.6725 70.1660473,30.6725 C68.5785845,30.6725 67.2005068,31.24265 66.0322635,32.3825 C64.9242297,33.5525 64.3702128,34.93265 64.3702128,36.5225 C64.3702128,38.12765 64.9242297,39.50735 66.0322635,40.6625 C67.2005068,41.81765 68.5785845,42.395 70.1660473,42.395 L70.1660473,42.395 Z M70.1660473,25.3625 C73.2515574,25.3625 75.8872939,26.45735 78.0746047,28.6475 C80.2610169,30.82235 81.3546723,33.44765 81.3546723,36.5225 C81.3546723,39.59735 80.2610169,42.22985 78.0746047,44.42 C75.8877432,46.61015 73.2520068,47.705 70.1660473,47.705 C67.1106419,47.705 64.4897331,46.6097 62.3028716,44.42 C60.1016318,42.22985 59.0003378,39.5978 59.0003378,36.5225 C59.0003378,33.4472 60.1011824,30.82235 62.3028716,28.6475 C64.4897331,26.45735 67.1106419,25.3625 70.1660473,25.3625 L70.1660473,25.3625 Z M52.4402027,23.045 L58.0118243,23.045 L58.1016892,38.57 C58.1016892,41.5103 56.566348,44.25485 53.4961149,46.805 C52.792473,47.40485 51.9980676,47.89985 51.1146959,48.29 C50.0960777,48.77015 48.9574899,49.10765 47.6993818,49.3025 C46.5014831,49.5275 44.7414797,49.64 42.4198209,49.64 L42.3748885,43.835 C43.8873142,43.80485 44.9360372,43.75985 45.5201588,43.7 C47.0779662,43.475 48.3284358,43.03985 49.2720169,42.395 C50.9345169,41.25515 51.9454966,39.79265 52.3049561,38.0075 C52.3948209,37.61735 52.4397534,36.59 52.4397534,34.925 L52.4397534,23.045 L52.4402027,23.045 Z M85.9597973,28.6025 C88.1165541,26.4425 90.7226351,25.3625 93.7775912,25.3625 C96.8181689,25.3625 99.4318885,26.4425 101.618301,28.6025 C103.775057,30.77735 104.853436,33.395 104.853436,36.455 L104.853436,47.705 L99.5963412,47.705 L99.5963412,36.455 C99.5963412,34.84985 99.0270473,33.47735 97.8889088,32.3375 C96.7507703,31.2125 95.3803311,30.65 93.7775912,30.65 C92.1901284,30.65 90.8273277,31.2125 89.6887399,32.3375 C88.5357736,33.47735 87.9588412,34.84985 87.9588412,36.455 L87.9588412,47.705 L82.6797297,47.705 L82.6797297,36.455 C82.6797297,33.395 83.7729358,30.77735 85.9597973,28.6025 L85.9597973,28.6025 Z M123.208784,36.5225 C123.208784,34.93265 122.63949,33.5525 121.501351,32.3825 C120.348385,31.24265 118.963118,30.6725 117.345101,30.6725 C115.742811,30.6725 114.364733,31.24265 113.211318,32.3825 C112.088007,33.5525 111.526351,34.93265 111.526351,36.5225 C111.526351,38.12765 112.088007,39.50735 113.211318,40.6625 C114.364733,41.8172 115.742811,42.395 117.345101,42.395 C118.963118,42.395 120.348385,41.81765 121.501351,40.6625 C122.63949,39.50735 123.208784,38.12765 123.208784,36.5225 L123.208784,36.5225 Z M128.555743,47.705 L123.276182,47.705 L123.276182,46.04 C121.523818,47.15015 119.546791,47.705 117.345101,47.705 C114.274868,47.705 111.653959,46.6097 109.481926,44.42 C107.280686,42.22985 106.179392,39.5978 106.179392,36.5225 C106.179392,33.4472 107.280236,30.82235 109.481926,28.6475 C111.653959,26.45735 114.274868,25.3625 117.345101,25.3625 C120.445439,25.3625 123.088814,26.45735 125.275676,28.6475 C127.462088,30.82235 128.555743,33.44765 128.555743,36.5225 L128.555743,47.705 L128.555743,47.705 Z M135.138345,25.3625 L135.138345,27.005 L136.598649,26.2175 C137.946622,25.64735 139.369182,25.3625 140.86723,25.3625 L140.86723,30.605 C140.088551,30.605 139.339527,30.75485 138.620608,31.055 C137.946622,31.35515 137.339584,31.775 136.800395,32.315 C136.261655,32.84015 135.856814,33.44765 135.587669,34.1375 C135.28797,34.5875 135.138345,35.2625 135.138345,36.1625 L135.138345,47.705 L129.88125,47.705 L129.88125,25.3625 L135.138345,25.3625 L135.138345,25.3625 Z" id="Jonar" fill="#497DFB" sketch:type="MSShapeGroup"></path>
            <path throwIfNamespace= false d="M40.2635135,49.7975 C39.3796926,49.7975 38.5709088,49.78265 37.8371622,49.7525 C37.2831453,49.73765 36.7740608,49.7075 36.3099088,49.6625 C36.1598345,49.63235 36.0102095,49.6175 35.8605845,49.6175 L35.8605845,37.04 L40.6234223,37.04 L40.6234223,49.7525 L40.5335574,49.7525 L40.5335574,49.7975 L40.2635135,49.7975 Z M28.2440878,31.145 L28.2440878,33.035 L28.2665541,33.035 L28.2665541,46.6025 C26.5442939,45.13235 25.2713581,43.60235 24.4472973,42.0125 C24.2828446,41.6975 24.1399595,41.37485 24.0204392,41.045 C23.9310236,40.82 23.848348,40.58735 23.7733108,40.3475 C23.6385135,39.86735 23.5338209,39.38 23.4587838,38.885 L23.4587838,23 L28.2440878,23 L28.2440878,31.145 Z M29.6594595,30.38 L34.4222973,30.38 L34.4222973,30.695 L34.4447635,49.3925 C33.2014831,49.1675 32.0633446,48.81515 31.0298986,48.335 C30.5657466,48.12485 30.1164223,47.89265 29.6819257,47.6375 C29.667098,47.6222 29.6522703,47.615 29.6365439,47.615 L29.6365439,36.57875 C29.6383412,36.63545 29.6459797,36.68405 29.6594595,36.725 L29.6594595,30.38 Z" id="Path" fill="#F5A240" sketch:type="MSShapeGroup"></path>
        </g>
    </g>
</svg>